<mxfile host="Electron" agent="Mozilla/5.0 (Windows NT 10.0; Win64; x64) AppleWebKit/537.36 (KHTML, like Gecko) draw.io/27.0.5 Chrome/134.0.6998.205 Electron/35.3.0 Safari/537.36" version="27.0.5">
  <diagram name="Page-1" id="r40J3xy_-7RcAxx2v7pZ">
    <mxGraphModel dx="1853" dy="622" grid="1" gridSize="10" guides="1" tooltips="1" connect="1" arrows="1" fold="1" page="1" pageScale="1" pageWidth="827" pageHeight="1169" math="0" shadow="0">
      <root>
        <mxCell id="0" />
        <mxCell id="1" parent="0" />
        <mxCell id="jQvyfyCKRC8OHvOxIDbb-3" value="" style="edgeStyle=orthogonalEdgeStyle;rounded=0;orthogonalLoop=1;jettySize=auto;html=1;" edge="1" parent="1" source="jQvyfyCKRC8OHvOxIDbb-1" target="jQvyfyCKRC8OHvOxIDbb-2">
          <mxGeometry relative="1" as="geometry" />
        </mxCell>
        <mxCell id="jQvyfyCKRC8OHvOxIDbb-1" value="IndiaMart Webpage:&lt;div&gt;&lt;br&gt;&lt;/div&gt;&lt;div&gt;List of top-level category URLs.&lt;/div&gt;" style="rounded=1;whiteSpace=wrap;html=1;" vertex="1" parent="1">
          <mxGeometry x="-823" y="555" width="120" height="60" as="geometry" />
        </mxCell>
        <mxCell id="jQvyfyCKRC8OHvOxIDbb-11" value="" style="edgeStyle=orthogonalEdgeStyle;rounded=0;orthogonalLoop=1;jettySize=auto;html=1;" edge="1" parent="1" source="jQvyfyCKRC8OHvOxIDbb-2" target="jQvyfyCKRC8OHvOxIDbb-10">
          <mxGeometry relative="1" as="geometry" />
        </mxCell>
        <mxCell id="jQvyfyCKRC8OHvOxIDbb-2" value="Extracts Product Sub-categories:&lt;div&gt;&lt;br&gt;&lt;div&gt;&lt;div&gt;- category (str): Main category name.&lt;/div&gt;&lt;div&gt;&lt;br&gt;&lt;/div&gt;&lt;div&gt;- sub_category (str): Sub-category name.&lt;/div&gt;&lt;div&gt;&lt;br&gt;&lt;/div&gt;&lt;div&gt;- sub_category_url (str): Fully resolved URL for the sub-category.&lt;/div&gt;&lt;/div&gt;&lt;/div&gt;" style="whiteSpace=wrap;html=1;rounded=1;" vertex="1" parent="1">
          <mxGeometry x="-672" y="425" width="200" height="320" as="geometry" />
        </mxCell>
        <mxCell id="jQvyfyCKRC8OHvOxIDbb-13" value="" style="edgeStyle=orthogonalEdgeStyle;rounded=0;orthogonalLoop=1;jettySize=auto;html=1;" edge="1" parent="1" source="jQvyfyCKRC8OHvOxIDbb-10" target="jQvyfyCKRC8OHvOxIDbb-12">
          <mxGeometry relative="1" as="geometry" />
        </mxCell>
        <mxCell id="jQvyfyCKRC8OHvOxIDbb-10" value="Extracts Product&amp;nbsp;&lt;div&gt;Sub-sub-categories:&lt;div&gt;&lt;br&gt;&lt;/div&gt;&lt;div&gt;&lt;div&gt;- category (str): Main category name.&lt;/div&gt;&lt;div&gt;&lt;span style=&quot;background-color: transparent; color: light-dark(rgb(0, 0, 0), rgb(255, 255, 255));&quot;&gt;&lt;br&gt;&lt;/span&gt;&lt;/div&gt;&lt;div&gt;&lt;span style=&quot;background-color: transparent; color: light-dark(rgb(0, 0, 0), rgb(255, 255, 255));&quot;&gt;- sub_category (str): Sub-category name.&lt;/span&gt;&lt;/div&gt;&lt;div&gt;&lt;span style=&quot;background-color: transparent; color: light-dark(rgb(0, 0, 0), rgb(255, 255, 255));&quot;&gt;&lt;br&gt;&lt;/span&gt;&lt;/div&gt;&lt;div&gt;&lt;span style=&quot;background-color: transparent; color: light-dark(rgb(0, 0, 0), rgb(255, 255, 255));&quot;&gt;- sub_sub_category (str): Sub-sub-category name.&lt;/span&gt;&lt;/div&gt;&lt;div&gt;&lt;br&gt;&lt;/div&gt;&lt;div&gt;- sub_sub_category_brand_name (str): Brand name of the sub-sub-category, if applicable.&lt;/div&gt;&lt;div&gt;&lt;br&gt;&lt;/div&gt;&lt;div&gt;- sub_sub_category_prod_map_total (str): Total number of products in the sub-sub-category.&lt;/div&gt;&lt;div&gt;&lt;span style=&quot;background-color: transparent; color: light-dark(rgb(0, 0, 0), rgb(255, 255, 255));&quot;&gt;&lt;br&gt;&lt;/span&gt;&lt;/div&gt;&lt;div&gt;&lt;span style=&quot;background-color: transparent; color: light-dark(rgb(0, 0, 0), rgb(255, 255, 255));&quot;&gt;- sub_sub_category_url (str): Fully resolved URL for the sub-sub-category.&lt;/span&gt;&lt;/div&gt;&lt;/div&gt;&lt;/div&gt;" style="whiteSpace=wrap;html=1;rounded=1;" vertex="1" parent="1">
          <mxGeometry x="-443" y="425" width="200" height="320" as="geometry" />
        </mxCell>
        <mxCell id="jQvyfyCKRC8OHvOxIDbb-12" value="Extracts Products:&lt;div&gt;&lt;br&gt;&lt;/div&gt;&lt;div&gt;&lt;div&gt;- category (str): Main category name.&lt;/div&gt;&lt;div&gt;&lt;br&gt;&lt;/div&gt;&lt;div&gt;- sub_category (str): Sub-category name.&lt;/div&gt;&lt;div&gt;&lt;br&gt;&lt;/div&gt;&lt;div&gt;- sub_sub_category (str): Sub-sub-category name.&lt;/div&gt;&lt;div&gt;&lt;br&gt;&lt;/div&gt;&lt;div&gt;- product (str): Name of the product.&lt;/div&gt;&lt;div&gt;&lt;br&gt;&lt;/div&gt;&lt;div&gt;- price (str): Price of the product.&lt;/div&gt;&lt;div&gt;&lt;br&gt;&lt;/div&gt;&lt;div&gt;- url (str): Fully resolved URL for the product page.&lt;/div&gt;&lt;/div&gt;" style="whiteSpace=wrap;html=1;rounded=1;" vertex="1" parent="1">
          <mxGeometry x="-210" y="425" width="200" height="320" as="geometry" />
        </mxCell>
      </root>
    </mxGraphModel>
  </diagram>
</mxfile>
